<svg xmlns="http://www.w3.org/2000/svg" width="64" height="64" viewBox="0 0 64 64" fill="none" stroke="#F59E0B" stroke-width="2">
  <path d="M50 44.18C55.52 43 60 37.93 60 32C60 26.07 55.52 21 50 19.82" />
  <path d="M18 32C18 26.48 22.48 22 28 22C28.36 22 28.72 22.02 29.07 22.06C30.62 17.42 34.9 14 40 14C46.63 14 52 19.37 52 26C52 26.17 52 26.33 51.99 26.49C57.29 27.56 61 32.25 61 38C61 44.08 56.08 49 50 49H22C19.74 49 17.61 48.05 16.12 46.38C14.64 44.72 14 42.49 14 40C14 35.58 16.72 32 20 32" />
  <path d="M34 56L38 60L46 52" />
  <path d="M38 42V60" />
  <path d="M26 42V56" />
  <path d="M22 50L26 56L30 50" />
</svg> 