<svg xmlns="http://www.w3.org/2000/svg" width="64" height="64" viewBox="0 0 64 64" fill="none" stroke="#F59E0B" stroke-width="2">
  <path d="M32 4C16.536 4 4 16.536 4 32C4 47.464 16.536 60 32 60C47.464 60 60 47.464 60 32C60 16.536 47.464 4 32 4Z" />
  <path d="M32 44C38.627 44 44 38.627 44 32C44 25.373 38.627 20 32 20C25.373 20 20 25.373 20 32C20 38.627 25.373 44 32 44Z" />
  <path d="M32 20V14" />
  <path d="M32 50V44" />
  <path d="M14 32H20" />
  <path d="M44 32H50" />
  <path d="M24 24L19 19" />
  <path d="M45 19L40 24" />
  <path d="M24 40L19 45" />
  <path d="M40 40L45 45" />
  <path d="M32 38L36 28" />
  <path d="M32 38L28 28" />
</svg> 